<?xml version="1.0" encoding="utf-8"?>
<!-- Svg Vector Icons : http://www.onlinewebfonts.com/icon -->
<!DOCTYPE svg PUBLIC "-//W3C//DTD SVG 1.1//EN" "http://www.w3.org/Graphics/SVG/1.1/DTD/svg11.dtd">
<svg version="1.1" xmlns="http://www.w3.org/2000/svg" xmlns:xlink="http://www.w3.org/1999/xlink" x="0px" y="0px" viewBox="0 0 1000 1000" enable-background="new 0 0 1000 1000" xml:space="preserve">
<metadata> Svg Vector Icons : http://www.onlinewebfonts.com/icon </metadata>
<g><path d="M925.4,391.2v485.5c0,34.7-27.7,62.4-62.4,62.4H127.9c-34.7,0-62.4-27.7-62.4-62.4V148.5c0-34.7,27.7-62.4,62.4-62.4h485.5V30.6H127.9C65.5,30.6,10,86.1,10,148.5v728.2c0,69.4,55.5,117.9,117.9,117.9h728.2c69.4,0,117.9-55.5,117.9-117.9V391.2H925.4z"/><path d="M252.7,682.5c-6.9,20.8-6.9,48.5,6.9,62.4c13.9,13.9,48.5,6.9,69.4,0C342.9,738,557.9,627,578.7,606.2c6.9-6.9,367.6-367.6,395.3-395.3c27.7-27.7,13.9-69.4,0-83.2c-13.9-13.9-62.4-62.4-111-104c-41.6-41.6-83.2,0-90.2,6.9S516.3,280.3,384.5,412C356.8,439.8,259.7,668.6,252.7,682.5z M793.7,86.1c6.9-6.9,27.7-13.9,41.6,0c13.9,13.9,55.5,55.5,62.4,62.4c6.9,6.9,20.8,27.7,6.9,41.6c-13.9,13.9-62.4,62.4-62.4,62.4l-111-104C731.3,148.5,786.7,93,793.7,86.1z M689.6,197l111,104L537.1,564.6l-111-111L689.6,197z M481.6,592.3c0,0-124.8,83.2-145.6,97.1c-20.8,13.9-34.7,13.9-34.7,0c0-6.9,13.9-34.7,20.8-48.5c0-6.9,83.2-138.7,83.2-138.7L481.6,592.3z"/></g>
</svg>